<svg xmlns="http://www.w3.org/2000/svg" viewBox="0 0 66.313 66.887">
  <defs>
    <style>
      .cls-1 {
        fill: #c555da;
      }
    </style>
  </defs>
  <g id="icon" transform="translate(-436 -1579)">
    <g id="two-overlapping-cogwheels" transform="translate(435.713 1579)">
      <g id="Group_1" data-name="Group 1">
        <path id="Path_5" data-name="Path 5" class="cls-1" d="M64.678,24.119H61.141a20.6,20.6,0,0,0-4.67-11.268l2.5-2.5A1.925,1.925,0,0,0,56.25,7.627l-2.5,2.5A20.591,20.591,0,0,0,42.48,5.46V1.926a1.925,1.925,0,1,0-3.849,0V5.46a20.594,20.594,0,0,0-11.266,4.668l-2.5-2.5a1.925,1.925,0,0,0-2.723,2.723l2.5,2.5a20.586,20.586,0,0,0-4.672,11.268H16.438a1.927,1.927,0,0,0,0,3.853h1.338a17.409,17.409,0,0,0-6.616,3.419L9.044,29.275a1.629,1.629,0,0,0-2.3,2.3l2.118,2.117a17.409,17.409,0,0,0-3.952,9.531H1.914a1.629,1.629,0,0,0,0,3.258H4.906a17.392,17.392,0,0,0,3.952,9.529L6.74,58.131a1.63,1.63,0,0,0,2.3,2.305l2.116-2.117a17.436,17.436,0,0,0,9.53,3.951v2.988a1.629,1.629,0,1,0,3.257,0V62.27a17.41,17.41,0,0,0,9.532-3.951L35.6,60.436a1.63,1.63,0,1,0,2.3-2.305l-2.118-2.117A17.52,17.52,0,0,0,38.76,50.8a1.912,1.912,0,0,0,3.719-.64V46.627a20.564,20.564,0,0,0,11.268-4.668l2.5,2.5a1.925,1.925,0,0,0,2.722-2.724l-2.5-2.5a20.592,20.592,0,0,0,4.67-11.262h3.537a1.927,1.927,0,0,0,0-3.853ZM36.48,46.35a14.172,14.172,0,0,1-3.1,7.461,14.5,14.5,0,0,1-2.1,2.1,14.176,14.176,0,0,1-7.461,3.1,13.651,13.651,0,0,1-2.988,0,14.168,14.168,0,0,1-7.459-3.1,14.446,14.446,0,0,1-2.1-2.1,14.178,14.178,0,0,1-3.1-7.461,14.509,14.509,0,0,1-.08-1.494A14.219,14.219,0,0,1,20.438,30.765a20.515,20.515,0,0,0,1.955,5.122c-.024,0-.048,0-.071,0a8.973,8.973,0,1,0,8.972,8.973c0-.114-.013-.228-.018-.342A20.544,20.544,0,0,0,36.484,46.3.3.3,0,0,1,36.48,46.35Zm-8.444-1.495a5.714,5.714,0,1,1-5.714-5.715,5.647,5.647,0,0,1,2.029.39l-2.208,2.206a1.925,1.925,0,0,0,2.722,2.724l2.407-2.407A5.651,5.651,0,0,1,28.036,44.855ZM57.295,27.809a16.755,16.755,0,0,1-3.669,8.82,16.985,16.985,0,0,1-2.483,2.482,16.911,16.911,0,0,1-10.586,3.764c-.295,0-.582-.031-.875-.048s-.6-.019-.89-.048a16.615,16.615,0,0,1-2.5-.461,16.814,16.814,0,0,1-6.319-3.206,16.6,16.6,0,0,1-5.522-8.3,16.546,16.546,0,0,1-.631-3,16.646,16.646,0,0,1,0-3.533c.009-.083.035-.162.045-.244a16.742,16.742,0,0,1,3.622-8.575,16.97,16.97,0,0,1,2.486-2.484,16.754,16.754,0,0,1,8.818-3.667,16.134,16.134,0,0,1,3.533,0,16.758,16.758,0,0,1,8.818,3.667,17,17,0,0,1,2.483,2.484,16.756,16.756,0,0,1,3.669,8.819,16.645,16.645,0,0,1,0,3.533Z"/>
        <path id="Path_6" data-name="Path 6" class="cls-1" d="M40.557,15.438a10.606,10.606,0,1,0,10.6,10.606A10.617,10.617,0,0,0,40.557,15.438Zm0,17.361a6.655,6.655,0,0,1-3.09-.786A6.781,6.781,0,0,1,35,29.87,6.745,6.745,0,1,1,40.557,32.8Z"/>
      </g>
    </g>
  </g>
</svg>
