<svg xmlns="http://www.w3.org/2000/svg" viewBox="0 0 47.71 45.636">
  <defs>
    <style>
      .cls-1 {
        fill: #c555da;
      }
    </style>
  </defs>
  <g id="ICON" transform="translate(-1040 -1279)">
    <path id="Path_5" data-name="Path 5" class="cls-1" d="M34.94,43.3h-9.4V39.7a18.7,18.7,0,0,0,10.931-5.473c7.036-6.8,11.238-18.578,11.238-31.507a1.688,1.688,0,0,0-1.687-1.687H38.077A1.687,1.687,0,0,0,36.39,2.725V5H11.32V2.725A1.688,1.688,0,0,0,9.633,1.038H1.687A1.686,1.686,0,0,0,0,2.725C0,15.656,4.2,27.434,11.238,34.231A18.691,18.691,0,0,0,22.167,39.7v3.6h-9.4a1.687,1.687,0,1,0,0,3.374H34.94a1.688,1.688,0,0,0,0-3.375ZM17.864,32.577c-.246-.328-.486-.675-.719-1.037-.077-.119-.15-.247-.226-.371-.153-.25-.31-.5-.458-.761-.088-.156-.172-.322-.257-.481-.132-.245-.265-.486-.392-.741-.089-.179-.173-.368-.261-.551-.117-.25-.235-.5-.348-.755-.088-.2-.171-.405-.255-.608-.108-.257-.213-.514-.316-.779-.082-.213-.162-.433-.241-.65-.1-.268-.195-.537-.289-.812-.077-.226-.15-.455-.224-.686-.089-.279-.179-.56-.265-.846-.071-.236-.139-.477-.207-.717-.08-.29-.16-.581-.237-.876-.065-.248-.127-.5-.189-.749-.073-.3-.143-.6-.212-.905-.058-.257-.113-.516-.168-.776-.065-.308-.126-.619-.186-.931-.049-.265-.1-.529-.147-.8-.054-.319-.109-.643-.16-.967-.042-.268-.084-.537-.124-.809-.047-.328-.091-.661-.135-.994-.035-.274-.07-.547-.1-.822q-.057-.505-.1-1.019c-.029-.277-.056-.553-.08-.834-.029-.347-.053-.7-.078-1.047-.018-.278-.04-.555-.055-.834-.02-.358-.034-.719-.047-1.081-.011-.274-.024-.549-.033-.826,0-.047,0-.1,0-.144H36.368c0,.048,0,.1,0,.144-.008.276-.021.549-.032.824-.015.362-.029.724-.048,1.084-.016.278-.037.553-.055.829-.024.353-.048.7-.078,1.053-.024.277-.052.551-.079.826-.034.344-.068.688-.107,1.027-.032.274-.067.543-.1.814-.044.336-.087.672-.136,1q-.059.4-.123.8c-.051.328-.1.654-.162.976q-.071.4-.145.786c-.059.316-.123.631-.188.943-.053.257-.109.512-.165.764-.07.309-.141.615-.216.918-.06.247-.12.493-.184.737-.078.3-.159.595-.241.888-.068.237-.135.474-.2.707-.086.289-.177.573-.267.855-.074.228-.147.455-.222.679-.094.278-.193.548-.292.819-.078.215-.157.431-.238.642-.1.268-.212.527-.32.788-.083.2-.166.4-.251.6-.114.259-.234.51-.352.76-.086.183-.171.369-.259.547-.127.255-.259.5-.391.743-.086.159-.17.325-.257.479-.15.265-.305.513-.459.763-.077.122-.149.25-.226.369-.233.362-.474.71-.719,1.038a12.627,12.627,0,0,1-2.406,2.486c-.04.031-.075.065-.114.093-.162.119-.333.221-.5.328-.1.059-.186.129-.285.183-.142.081-.3.141-.443.21-.133.062-.262.138-.4.19s-.262.074-.392.114a4.887,4.887,0,0,1-.5.147c-.133.026-.272.026-.407.041a4.809,4.809,0,0,1-.537.053h0C21.278,36.421,19.175,34.33,17.864,32.577Zm21.9-28.166h4.547c-.343,10.927-3.99,21.063-9.723,26.936.035-.064.063-.136.1-.2q.528-1.01,1-2.108c.057-.131.11-.267.167-.4.307-.734.6-1.49.876-2.277.02-.059.042-.114.062-.172.283-.822.542-1.677.785-2.55.048-.171.1-.341.144-.515q.348-1.293.64-2.65c.035-.165.067-.331.1-.5.189-.924.363-1.863.513-2.825a.938.938,0,0,0,.017-.1c.152-.982.274-1.986.381-3,.021-.191.041-.38.061-.572q.143-1.484.224-3.006c.011-.19.017-.381.026-.571.047-1.062.079-2.13.079-3.213C39.764,6.683,39.764,4.411,39.764,4.411ZM3.4,4.411H7.947V6.684c0,1.082.032,2.151.078,3.213.009.19.016.381.026.571q.08,1.523.224,3.006c.019.192.04.381.061.571.107,1.016.229,2.02.381,3,.005.035.011.068.017.1.149.964.323,1.9.514,2.829.033.164.064.328.1.491q.292,1.36.641,2.656c.047.171.094.337.141.5.246.876.505,1.735.788,2.56.017.053.038.1.057.154.277.8.574,1.562.885,2.3.053.126.1.255.158.379q.482,1.109,1.013,2.125c.032.061.059.129.089.19C7.389,25.472,3.742,15.337,3.4,4.411Z" transform="translate(1040 1277.962)"/>
  </g>
</svg>
