<svg xmlns="http://www.w3.org/2000/svg" viewBox="0 0 42.236 42.235">
  <defs>
    <style>
      .cls-1 {
        fill: #c555da;
      }
    </style>
  </defs>
  <g id="ICON" transform="translate(0 -0.001)">
    <g id="Group_2" data-name="Group 2">
      <path id="Path_7" data-name="Path 7" class="cls-1" d="M40.354,42.236H1.883A1.883,1.883,0,0,1,0,40.355V1.883A1.883,1.883,0,0,1,1.883,0H2.42A1.881,1.881,0,0,1,4.191,1.248a2.84,2.84,0,0,0,5.366,0A1.883,1.883,0,0,1,11.328,0h.588a1.881,1.881,0,0,1,1.771,1.247,2.84,2.84,0,0,0,5.366,0A1.883,1.883,0,0,1,20.824,0h.588a1.881,1.881,0,0,1,1.771,1.247,2.84,2.84,0,0,0,5.366,0A1.883,1.883,0,0,1,30.32,0h.588a1.881,1.881,0,0,1,1.771,1.247,2.84,2.84,0,0,0,5.366,0A1.884,1.884,0,0,1,39.816,0h.537a1.883,1.883,0,0,1,1.883,1.882V40.356A1.88,1.88,0,0,1,40.354,42.236ZM3.764,38.473H38.473V6.134a6.554,6.554,0,0,1-3.109.786,6.61,6.61,0,0,1-4.748-2.025A6.608,6.608,0,0,1,25.868,6.92a6.613,6.613,0,0,1-4.749-2.025,6.578,6.578,0,0,1-9.5,0A6.609,6.609,0,0,1,6.875,6.92a6.555,6.555,0,0,1-3.11-.786V38.473Z"/>
    </g>
    <g id="Group_6" data-name="Group 6">
      <g id="Group_3" data-name="Group 3">
        <path id="Path_8" data-name="Path 8" class="cls-1" d="M34.709,16.728H7.529a1.882,1.882,0,1,1,0-3.764H34.71a1.882,1.882,0,1,1,0,3.764Z"/>
      </g>
      <g id="Group_4" data-name="Group 4">
        <path id="Path_9" data-name="Path 9" class="cls-1" d="M34.709,23H7.529a1.882,1.882,0,0,1,0-3.764H34.71a1.882,1.882,0,1,1,0,3.764Z"/>
      </g>
      <g id="Group_5" data-name="Group 5">
        <path id="Path_10" data-name="Path 10" class="cls-1" d="M34.709,29.272H7.529a1.882,1.882,0,1,1,0-3.763H34.71a1.882,1.882,0,1,1,0,3.763Z"/>
      </g>
    </g>
  </g>
</svg>
